<mxfile host="app.diagrams.net" modified="2023-12-12T08:39:47.394Z" agent="Mozilla/5.0 (Macintosh; Intel Mac OS X 10_15_7) AppleWebKit/537.36 (KHTML, like Gecko) Chrome/119.0.0.0 Safari/537.36" etag="i82FFoQitj2nY02GmAxS" version="22.1.7" type="github">
  <diagram name="第 1 页" id="J4uYZf8pRWPRZiSCUUQ6">
    <mxGraphModel dx="4293" dy="5372" grid="1" gridSize="10" guides="1" tooltips="1" connect="1" arrows="1" fold="1" page="1" pageScale="1" pageWidth="3300" pageHeight="4681" math="0" shadow="0">
      <root>
        <mxCell id="0" />
        <mxCell id="1" parent="0" />
        <mxCell id="xapJVbtJsIF2dAJFyz2N-1" value="顶层prompt，包含工具，知识点，日志等等。&#xa;（1）角色&#xa;（2）你有下面几个工具可以调用&#xa;（3）你还知道下面一些知识点。  （具备哪些知识点？）&#xa;&#xa;&#xa;选择工具，或者直接回答知识点中的内容。" style="text;whiteSpace=wrap;" vertex="1" parent="1">
          <mxGeometry x="-509.5" y="-650" width="330" height="120" as="geometry" />
        </mxCell>
        <mxCell id="xapJVbtJsIF2dAJFyz2N-5" value="" style="edgeStyle=orthogonalEdgeStyle;rounded=0;orthogonalLoop=1;jettySize=auto;html=1;" edge="1" parent="1" source="xapJVbtJsIF2dAJFyz2N-2">
          <mxGeometry relative="1" as="geometry">
            <mxPoint x="-330" y="-440" as="targetPoint" />
          </mxGeometry>
        </mxCell>
        <mxCell id="xapJVbtJsIF2dAJFyz2N-2" value="用户问题" style="rounded=0;whiteSpace=wrap;html=1;" vertex="1" parent="1">
          <mxGeometry x="-520" y="-470" width="120" height="60" as="geometry" />
        </mxCell>
        <mxCell id="xapJVbtJsIF2dAJFyz2N-7" style="edgeStyle=orthogonalEdgeStyle;rounded=0;orthogonalLoop=1;jettySize=auto;html=1;" edge="1" parent="1" source="xapJVbtJsIF2dAJFyz2N-6">
          <mxGeometry relative="1" as="geometry">
            <mxPoint x="-270" y="-350" as="targetPoint" />
          </mxGeometry>
        </mxCell>
        <mxCell id="xapJVbtJsIF2dAJFyz2N-6" value="顶层prompt尝试回答" style="rounded=0;whiteSpace=wrap;html=1;" vertex="1" parent="1">
          <mxGeometry x="-330" y="-470" width="120" height="60" as="geometry" />
        </mxCell>
        <mxCell id="xapJVbtJsIF2dAJFyz2N-10" style="edgeStyle=orthogonalEdgeStyle;rounded=0;orthogonalLoop=1;jettySize=auto;html=1;" edge="1" parent="1" source="xapJVbtJsIF2dAJFyz2N-9">
          <mxGeometry relative="1" as="geometry">
            <mxPoint x="-270" y="-240" as="targetPoint" />
          </mxGeometry>
        </mxCell>
        <mxCell id="xapJVbtJsIF2dAJFyz2N-13" style="edgeStyle=orthogonalEdgeStyle;rounded=0;orthogonalLoop=1;jettySize=auto;html=1;exitX=1;exitY=0.5;exitDx=0;exitDy=0;" edge="1" parent="1" source="xapJVbtJsIF2dAJFyz2N-9">
          <mxGeometry relative="1" as="geometry">
            <mxPoint x="-170" y="-315" as="targetPoint" />
          </mxGeometry>
        </mxCell>
        <mxCell id="xapJVbtJsIF2dAJFyz2N-18" value="失败" style="edgeLabel;html=1;align=center;verticalAlign=middle;resizable=0;points=[];" vertex="1" connectable="0" parent="xapJVbtJsIF2dAJFyz2N-13">
          <mxGeometry x="-0.3905" y="4" relative="1" as="geometry">
            <mxPoint as="offset" />
          </mxGeometry>
        </mxCell>
        <mxCell id="xapJVbtJsIF2dAJFyz2N-9" value="回答是否成功" style="rhombus;whiteSpace=wrap;html=1;" vertex="1" parent="1">
          <mxGeometry x="-317" y="-350" width="95" height="70" as="geometry" />
        </mxCell>
        <mxCell id="xapJVbtJsIF2dAJFyz2N-11" value="结束" style="rounded=0;whiteSpace=wrap;html=1;" vertex="1" parent="1">
          <mxGeometry x="-329.5" y="-240" width="120" height="60" as="geometry" />
        </mxCell>
        <mxCell id="xapJVbtJsIF2dAJFyz2N-12" value="成功" style="text;html=1;align=center;verticalAlign=middle;resizable=0;points=[];autosize=1;strokeColor=none;fillColor=none;" vertex="1" parent="1">
          <mxGeometry x="-280" y="-280" width="50" height="30" as="geometry" />
        </mxCell>
        <mxCell id="xapJVbtJsIF2dAJFyz2N-16" style="edgeStyle=orthogonalEdgeStyle;rounded=0;orthogonalLoop=1;jettySize=auto;html=1;" edge="1" parent="1" source="xapJVbtJsIF2dAJFyz2N-14">
          <mxGeometry relative="1" as="geometry">
            <mxPoint y="-315" as="targetPoint" />
          </mxGeometry>
        </mxCell>
        <mxCell id="xapJVbtJsIF2dAJFyz2N-14" value="调用classifier" style="rounded=0;whiteSpace=wrap;html=1;" vertex="1" parent="1">
          <mxGeometry x="-170" y="-345" width="120" height="60" as="geometry" />
        </mxCell>
        <mxCell id="xapJVbtJsIF2dAJFyz2N-17" value="指定工具解决问题" style="rounded=0;whiteSpace=wrap;html=1;" vertex="1" parent="1">
          <mxGeometry y="-345" width="120" height="60" as="geometry" />
        </mxCell>
        <mxCell id="xapJVbtJsIF2dAJFyz2N-19" value="用户问：你是谁？&#xa;用户问：你能做什么？&#xa;用户问：us有哪日志？&#xa;用户问：wise.log日志中什么比较重要..？&#xa;用户问：你有哪些工具？&#xa;用户问：metrics工具是干什么用的？&#xa;用户问：使用说明？" style="text;whiteSpace=wrap;" vertex="1" parent="1">
          <mxGeometry x="-120" y="-650" width="250" height="120" as="geometry" />
        </mxCell>
        <mxCell id="xapJVbtJsIF2dAJFyz2N-21" value="" style="edgeStyle=orthogonalEdgeStyle;rounded=0;orthogonalLoop=1;jettySize=auto;html=1;" edge="1" parent="1" source="xapJVbtJsIF2dAJFyz2N-22">
          <mxGeometry relative="1" as="geometry">
            <mxPoint x="-370" y="-60" as="targetPoint" />
          </mxGeometry>
        </mxCell>
        <mxCell id="xapJVbtJsIF2dAJFyz2N-22" value="用户问题" style="rounded=0;whiteSpace=wrap;html=1;" vertex="1" parent="1">
          <mxGeometry x="-560" y="-90" width="120" height="60" as="geometry" />
        </mxCell>
        <mxCell id="xapJVbtJsIF2dAJFyz2N-23" style="edgeStyle=orthogonalEdgeStyle;rounded=0;orthogonalLoop=1;jettySize=auto;html=1;" edge="1" parent="1" source="xapJVbtJsIF2dAJFyz2N-24">
          <mxGeometry relative="1" as="geometry">
            <mxPoint x="-310" y="30" as="targetPoint" />
          </mxGeometry>
        </mxCell>
        <mxCell id="xapJVbtJsIF2dAJFyz2N-24" value="顶层prompt尝试回答" style="rounded=0;whiteSpace=wrap;html=1;" vertex="1" parent="1">
          <mxGeometry x="-370" y="-90" width="120" height="60" as="geometry" />
        </mxCell>
        <mxCell id="xapJVbtJsIF2dAJFyz2N-25" style="edgeStyle=orthogonalEdgeStyle;rounded=0;orthogonalLoop=1;jettySize=auto;html=1;" edge="1" parent="1" source="xapJVbtJsIF2dAJFyz2N-28">
          <mxGeometry relative="1" as="geometry">
            <mxPoint x="-310" y="140" as="targetPoint" />
          </mxGeometry>
        </mxCell>
        <mxCell id="xapJVbtJsIF2dAJFyz2N-26" style="edgeStyle=orthogonalEdgeStyle;rounded=0;orthogonalLoop=1;jettySize=auto;html=1;exitX=1;exitY=0.5;exitDx=0;exitDy=0;" edge="1" parent="1" source="xapJVbtJsIF2dAJFyz2N-28">
          <mxGeometry relative="1" as="geometry">
            <mxPoint x="-210" y="65" as="targetPoint" />
          </mxGeometry>
        </mxCell>
        <mxCell id="xapJVbtJsIF2dAJFyz2N-27" value="失败" style="edgeLabel;html=1;align=center;verticalAlign=middle;resizable=0;points=[];" vertex="1" connectable="0" parent="xapJVbtJsIF2dAJFyz2N-26">
          <mxGeometry x="-0.3905" y="4" relative="1" as="geometry">
            <mxPoint as="offset" />
          </mxGeometry>
        </mxCell>
        <mxCell id="xapJVbtJsIF2dAJFyz2N-28" value="回答是否成功" style="rhombus;whiteSpace=wrap;html=1;" vertex="1" parent="1">
          <mxGeometry x="-357" y="30" width="95" height="70" as="geometry" />
        </mxCell>
        <mxCell id="xapJVbtJsIF2dAJFyz2N-29" value="结束" style="rounded=0;whiteSpace=wrap;html=1;" vertex="1" parent="1">
          <mxGeometry x="-369.5" y="140" width="120" height="60" as="geometry" />
        </mxCell>
        <mxCell id="xapJVbtJsIF2dAJFyz2N-30" value="成功" style="text;html=1;align=center;verticalAlign=middle;resizable=0;points=[];autosize=1;strokeColor=none;fillColor=none;" vertex="1" parent="1">
          <mxGeometry x="-320" y="100" width="50" height="30" as="geometry" />
        </mxCell>
        <mxCell id="xapJVbtJsIF2dAJFyz2N-31" style="edgeStyle=orthogonalEdgeStyle;rounded=0;orthogonalLoop=1;jettySize=auto;html=1;" edge="1" parent="1" source="xapJVbtJsIF2dAJFyz2N-32">
          <mxGeometry relative="1" as="geometry">
            <mxPoint x="-40" y="65" as="targetPoint" />
          </mxGeometry>
        </mxCell>
        <mxCell id="xapJVbtJsIF2dAJFyz2N-32" value="调用classifier" style="rounded=0;whiteSpace=wrap;html=1;" vertex="1" parent="1">
          <mxGeometry x="-210" y="35" width="120" height="60" as="geometry" />
        </mxCell>
        <mxCell id="xapJVbtJsIF2dAJFyz2N-33" value="指定工具解决问题" style="rounded=0;whiteSpace=wrap;html=1;" vertex="1" parent="1">
          <mxGeometry x="-40" y="35" width="120" height="60" as="geometry" />
        </mxCell>
      </root>
    </mxGraphModel>
  </diagram>
</mxfile>
